<svg width="1058" height="785" viewBox="0 0 1058 785" fill="none" xmlns="http://www.w3.org/2000/svg">
<g id="undraw_Ride_a_bicycle_2yok (1) 1">
<g id="frontwheel">
<path id="Vector" d="M678.42 727.39L672.16 629.49L672.03 629.28L665.71 631.48L636.62 716.29L590.37 683.49L664.06 630.08L664.13 629.87L664.55 629.72L669.3 626.27L592.06 582.96L573.13 603.76L576.13 623.26L664.93 624.84V626.84L574.45 625.22L571.05 603.11L596.94 574.66L635.66 529.49L636.35 531.36L644.55 522.36L675.09 527.83V526.62L677.09 526.68V528.19L722.45 536.31L680.12 620.96L673.95 625.43V625.93V626.49L771.76 592.41L760.15 683.62L677.15 630.75L674.23 629.11L723.17 708L678.42 727.39ZM674.42 633.05L680.27 724.43L720.32 707.05L674.42 633.05ZM593.85 683.49L635.64 713.12L662.98 633.38L593.85 683.49ZM676.17 627.83L678.26 629L758.61 680.2L769.41 595.33L676.17 627.83ZM669.07 620.63L671.58 624.68L672.02 624.36L675.02 529.83L645.28 524.49L637.12 533.49L669.07 620.63ZM593.68 581.58L668.52 623.58L667.22 621.45L635.64 535.18L598.44 576.06L593.68 581.58ZM677.05 530.19L674.05 622.88L678.57 619.6L719.48 537.78L677.05 530.19Z" fill="#535461"/>
<path id="Vector_2" d="M674.757 511C664.144 510.988 653.578 512.415 643.347 515.24C638.071 516.695 632.904 518.523 627.887 520.71C601.157 532.297 579.674 553.387 567.594 579.898C555.514 606.41 553.697 636.459 562.492 664.233C571.287 692.008 590.071 715.533 615.209 730.259C640.348 744.984 670.054 749.863 698.582 743.952C727.109 738.04 752.431 721.759 769.648 698.257C786.865 674.755 794.754 645.702 791.789 616.72C788.823 587.738 775.215 560.885 753.595 541.356C731.975 521.828 703.881 511.012 674.747 511H674.757ZM674.357 717.09C654.076 717.082 634.408 710.137 618.62 697.407C602.831 684.678 591.872 666.931 587.562 647.113C583.252 627.295 585.851 606.599 594.928 588.463C604.004 570.326 619.011 555.84 637.457 547.41C642.149 545.262 647.021 543.532 652.017 542.24C664.229 539.07 676.977 538.537 689.411 540.678C701.845 542.818 713.681 547.581 724.13 554.652C734.58 561.722 743.404 570.937 750.015 581.683C756.627 592.429 760.873 604.46 762.473 616.975C764.073 629.49 762.989 642.202 759.293 654.265C755.598 666.329 749.375 677.467 741.04 686.939C732.704 696.41 722.447 703.998 710.951 709.196C699.455 714.395 686.984 717.086 674.367 717.09H674.357Z" fill="black"/>
<path id="Vector_3" d="M676.81 635.62C683.885 635.62 689.62 629.885 689.62 622.81C689.62 615.735 683.885 610 676.81 610C669.735 610 664 615.735 664 622.81C664 629.885 669.735 635.62 676.81 635.62Z" fill="#535461"/>
</g>
<g id="rider">
<path id="Vector_4" d="M387 554.303L344.293 512.159L330.947 525.683L373.654 567.827L387 554.303Z" fill="#6C63FF"/>
<path id="Vector_5" d="M387 554.303L344.293 512.159L330.947 525.683L373.654 567.827L387 554.303Z" fill="#3A2D2D"/>
<path id="Vector_6" d="M354.48 491.99C354.48 491.99 379.27 478.91 388.85 470.49C394.617 465.444 400.818 460.917 407.38 456.96L438.48 438.03L503.48 433.03L506.48 444.03C506.48 444.03 511.48 460.03 461.48 474.03C411.48 488.03 386.48 510.03 386.48 510.03C386.48 510.03 354.48 520.99 354.48 491.99Z" fill="#DB8B8B"/>
<path id="Vector_7" opacity="0.1" d="M389.13 507.86C387.36 509.21 386.48 509.99 386.48 509.99C386.48 509.99 354.48 520.99 354.48 491.99C354.48 491.99 356.03 491.17 358.48 489.8C360.955 493.831 364.423 497.16 368.551 499.469C372.679 501.778 377.33 502.99 382.06 502.99H385.45L389.13 507.86Z" fill="black"/>
<path id="Vector_8" opacity="0.05" d="M505.54 449.55C502.76 455.44 493.17 465.12 461.48 473.99C420.87 485.36 396.75 501.99 389.13 507.86C387.36 509.21 386.48 509.99 386.48 509.99C386.48 509.99 354.48 520.99 354.48 491.99C354.48 491.99 356.03 491.17 358.48 489.8C365.91 485.73 381.64 476.8 388.82 470.45C394.586 465.403 400.787 460.875 407.35 456.92L438.45 437.99L450.03 437.1L503.45 432.99L506.45 443.99C506.45 443.99 507.15 446.14 505.54 449.55Z" fill="black"/>
<path id="Vector_9" d="M354.98 485.49L328.48 502.99L406.08 567.99C406.08 567.99 417.48 560.99 411.48 552.99C411.48 552.99 391.48 535.99 390.48 511.99L384.48 503.99H381.09C375.358 503.991 369.767 502.211 365.089 498.897C360.412 495.583 356.88 490.898 354.98 485.49V485.49Z" fill="#ABB1D1"/>
<path id="Vector_10" opacity="0.1" d="M505.54 449.55C489.54 441.82 450.48 440.99 450.48 440.99L450.06 437.1L503.48 432.99L506.48 443.99C506.48 443.99 507.15 446.14 505.54 449.55Z" fill="black"/>
<path id="Vector_11" d="M450.48 438.99C450.48 438.99 497.48 439.99 509.48 449.99L503.48 328.99H438.48L450.48 438.99Z" fill="#ABB1D1"/>
<path id="Vector_12" d="M450.48 438.49C450.48 438.49 497.48 439.49 509.48 449.49L503.48 328.49H438.48L450.48 438.49Z" fill="#2344F3"/>
<path id="Vector_13" d="M488.24 364.95C488.24 364.95 605.89 360.95 608.29 376.16C610.69 391.37 490.64 384.96 490.64 384.96C490.64 384.96 481.04 375.35 488.24 364.95Z" fill="#535461"/>
<path id="Vector_14" opacity="0.05" d="M488.24 364.95C488.24 364.95 605.89 360.95 608.29 376.16C610.69 391.37 490.64 384.96 490.64 384.96C490.64 384.96 481.04 375.35 488.24 364.95Z" fill="black"/>
<path id="Vector_15" d="M393 425.78H372.19V606.66H393V425.78Z" fill="#3D3C57"/>
<path id="Vector_16" opacity="0.1" d="M393 425.77V439.7C386.08 440.6 379 441.17 372.19 441.39V425.77H393Z" fill="black"/>
<path id="Vector_17" d="M391.44 410.78C388.52 410.554 385.616 410.164 382.74 409.61C371.46 407.45 343.02 402.92 335.37 410.61C325.77 420.21 328.97 437.02 354.58 439.42C380.19 441.82 424.21 435.42 433.02 425.81C433.02 425.77 417.09 412.75 391.44 410.78Z" fill="#535461"/>
<path id="Vector_18" d="M387.4 475.4L605.9 407.37L613.1 424.18L389 501.01L387.4 475.4Z" fill="#414054"/>
<path id="Vector_19" d="M452.23 582.65L609.9 427.38L618.7 440.18L468.23 597.05L452.23 582.65Z" fill="#5C5B68"/>
<path id="Vector_20" opacity="0.1" d="M653.58 529.85C648.584 531.142 643.712 532.872 639.02 535.02L629.46 508.31C634.477 506.123 639.644 504.295 644.92 502.84L653.58 529.85Z" fill="black"/>
<path id="Vector_21" d="M680.33 608.26L669.13 614.66L590.99 396.33L587.49 386.56L605.9 376.15L610.51 390.53L680.33 608.26Z" fill="#42414A"/>
<path id="Vector_22" opacity="0.1" d="M610.51 390.53L590.99 396.33L587.49 386.56L605.9 376.15L610.51 390.53Z" fill="black"/>
<path id="Vector_23" d="M491.44 407.37L601.09 369.75C601.09 369.75 620.3 372.15 613.09 388.16L502.65 420.97C502.65 420.97 485.85 422.57 491.44 407.37Z" fill="#535461"/>
<path id="Vector_24" opacity="0.1" d="M367.79 615.86C367.789 621.994 367.314 628.119 366.37 634.18C356.77 633.49 346.85 632.49 337.13 631.49C339.289 619.599 339.021 607.394 336.34 595.61C345.81 593.61 355.48 591.7 364.92 589.97C366.833 598.467 367.795 607.15 367.79 615.86V615.86Z" fill="black"/>
<path id="Vector_25" opacity="0.1" d="M393 585.38V606.65H372.19V588.65C379.39 587.4 386.39 586.29 393 585.38Z" fill="black"/>
<path id="Vector_26" d="M258.54 615.49C258.54 615.49 426.62 571.49 440.22 588.28C453.82 605.07 468.23 627.49 425.85 635.49C383.47 643.49 255.37 621.88 255.37 621.88L258.54 615.49Z" fill="#39384B"/>
<path id="Vector_27" opacity="0.1" d="M341.21 541.37L319.85 560.92C316.067 556.064 311.791 551.614 307.09 547.64L327.03 526.81C332.164 531.249 336.908 536.12 341.21 541.37V541.37Z" fill="black"/>
<path id="Vector_28" d="M252.94 606.66L378.59 475.4L382.6 505.81L259.34 618.66L252.94 606.66Z" fill="#313040"/>
<path id="Vector_29" opacity="0.1" d="M251.34 628.27C258.415 628.27 264.15 622.535 264.15 615.46C264.15 608.385 258.415 602.65 251.34 602.65C244.265 602.65 238.53 608.385 238.53 615.46C238.53 622.535 244.265 628.27 251.34 628.27Z" fill="black"/>
<path id="Vector_30" opacity="0.1" d="M448.22 628.27C462.364 628.27 473.83 616.804 473.83 602.66C473.83 588.516 462.364 577.05 448.22 577.05C434.076 577.05 422.61 588.516 422.61 602.66C422.61 616.804 434.076 628.27 448.22 628.27Z" fill="black"/>
<path id="Vector_31" d="M449.83 628.27C463.974 628.27 475.44 616.804 475.44 602.66C475.44 588.516 463.974 577.05 449.83 577.05C435.686 577.05 424.22 588.516 424.22 602.66C424.22 616.804 435.686 628.27 449.83 628.27Z" fill="#535461"/>
<path id="Vector_32" d="M442.992 600.736L442.984 600.742C439.977 602.991 439.362 607.253 441.611 610.26L461.937 637.441C464.186 640.448 468.448 641.063 471.455 638.814L471.463 638.808C474.471 636.559 475.085 632.297 472.836 629.29L452.51 602.109C450.261 599.102 446 598.487 442.992 600.736Z" fill="#6C63FF"/>
<path id="Vector_33" d="M565.48 246.99L563.1 277.1C562.826 280.914 562.876 284.744 563.25 288.55C563.56 291.92 563.25 297.82 559.95 306.82C555.713 318.317 553.523 330.467 553.48 342.72V376.99L530.48 372.99C530.48 372.99 531.48 324.99 527.48 316.99C523.48 308.99 530.48 237.99 530.48 237.99L565.48 246.99Z" fill="#DB8B8B"/>
<path id="Vector_34" opacity="0.05" d="M564.3 261.91L563.1 277.1C562.83 280.911 562.883 284.738 563.26 288.54C563.57 291.91 563.26 297.81 559.96 306.82C555.723 318.317 553.533 330.467 553.49 342.72V376.99L530.49 372.99C530.49 372.99 531.49 324.99 527.49 316.99C524.66 311.32 527.34 274.05 529.15 252.78C529.9 244.03 530.49 237.99 530.49 237.99L565.49 246.99L564.3 261.91Z" fill="black"/>
<path id="Vector_35" d="M451.5 476.99L442.85 526.19C441.759 532.759 440.086 539.218 437.85 545.49C432.78 559.35 436.02 578.78 438.48 589.38C439.57 594.06 440.48 597.02 440.48 597.02L414.48 611.02L406.48 605.02V601.02L405.48 512.02C399.48 498.02 401.48 477.02 405.48 469.02C406.617 466.392 407.417 463.63 407.86 460.8C409.86 450.08 410.48 435.02 410.48 435.02C410.48 435.02 426.48 408.02 445.48 426.02C452.48 432.65 455.14 441.32 455.7 449.62C456.68 463.83 451.5 476.99 451.5 476.99Z" fill="#DB8B8B"/>
<path id="Vector_36" opacity="0.1" d="M455.7 449.59C441.83 457.83 417.7 460.16 407.86 460.77C409.86 450.05 410.48 434.99 410.48 434.99C410.48 434.99 426.48 407.99 445.48 425.99C452.48 432.62 455.14 441.29 455.7 449.59Z" fill="black"/>
<path id="Vector_37" d="M475.225 422C464.591 427.663 454.542 434.362 445.225 442C429.225 455 389.225 456 389.225 456V441C390.225 423 373.225 403 350.225 347C335.535 311.24 339.605 291 344.465 281C347.225 275.35 350.225 273 350.225 273L475.225 297L479.695 310.4L489.225 339C489.225 339 454.225 341 448.225 344C442.225 347 446.225 374 446.225 374C440.225 402 475.225 422 475.225 422Z" fill="#2344F3"/>
<path id="Vector_38" d="M560.48 206C557.87 226.35 557 252 557 252C534 270 516 247 516 247C494.28 252.83 484.07 271.84 479.26 288.43C476.684 297.404 475.252 306.667 475 316C475 316 468.92 321 457.72 322C447.13 322.89 431.95 320.13 413 306C374 277 339 285 339 285C339 285 346 245 362 233C378 221 390 206 410 160C430 114 471 125 471 125C471 125 473 116 510 125C519.012 127.362 527.354 131.781 534.37 137.91C554.16 154.55 563.76 180.36 560.48 206Z" fill="#8782BF"/>
<path id="Vector_39" d="M541.85 149.49C541.8 150.82 541.69 152.3 541.51 153.95C539.51 171.95 537.51 169.95 515.51 173.95C501.83 176.44 494.72 165.01 491.3 156.01C490.062 152.75 489.128 149.382 488.51 145.95L536.51 137.95C536.51 137.95 542.26 136.34 541.85 149.49Z" fill="#DB8B8B"/>
<path id="Vector_40" opacity="0.05" d="M497.74 290.42C495.164 299.394 493.732 308.657 493.48 317.99C493.48 317.99 487.4 322.99 476.2 323.99C475.884 323.353 475.643 322.682 475.48 321.99C473.48 312.99 458.48 296.99 458.48 296.99C448.48 287.99 446.48 271.99 446.48 271.99L429.98 223.49L424.48 218.99C424.48 218.99 447.48 200.99 467.48 215.99C487.48 230.99 481.48 262.99 481.48 262.99L485.48 273.99C489.63 277.49 493.85 283.66 497.74 290.42Z" fill="black"/>
<path id="Vector_41" d="M427.48 217.99L449.48 270.99C449.48 270.99 451.48 286.99 461.48 295.99C461.48 295.99 476.48 311.99 478.48 320.99C480.48 329.99 508.48 353.99 508.48 353.99C508.48 353.99 534.48 377.99 536.48 386.99C536.48 386.99 560.48 393.99 557.48 407.99C557.48 407.99 575.48 389.99 557.48 372.99C539.48 355.99 515.48 320.99 515.48 320.99C515.48 320.99 501.48 283.99 488.48 272.99L484.48 261.99C484.48 261.99 490.48 229.99 470.48 214.99C450.48 199.99 427.48 217.99 427.48 217.99Z" fill="#DB8B8B"/>
<path id="Vector_42" opacity="0.1" d="M440.48 596.99L414.48 610.99L406.48 604.99V600.99C415.464 600.352 424.193 597.718 432.03 593.28C434.43 591.92 436.69 590.58 438.5 589.4C439.55 594.03 440.48 596.99 440.48 596.99Z" fill="black"/>
<path id="Vector_43" d="M470 182.224L484 237.224C484 237.224 441 244.224 432 237.224C423 230.224 406 228.224 406 228.224C406 228.224 424 176.224 434 170.224C444 164.224 470 182.224 470 182.224Z" fill="white"/>
<path id="Vector_44" opacity="0.1" d="M541.85 148.49C539.049 152.356 535.487 155.609 531.383 158.047C527.278 160.485 522.718 162.058 517.983 162.669C513.248 163.28 508.439 162.915 503.85 161.598C499.261 160.281 494.99 158.039 491.3 155.01C490.062 151.75 489.128 148.382 488.51 144.95L536.51 136.95C536.51 136.95 542.26 135.34 541.85 148.49Z" fill="black"/>
<path id="Vector_45" d="M548.48 126.99C548.48 136.273 544.793 145.175 538.229 151.739C531.665 158.303 522.763 161.99 513.48 161.99C504.197 161.99 495.295 158.303 488.731 151.739C482.168 145.175 478.48 136.273 478.48 126.99C478.48 126.41 478.48 125.83 478.48 125.25C478.711 115.967 482.62 107.157 489.346 100.756C496.073 94.3555 505.067 90.8893 514.35 91.12C523.633 91.3508 532.443 95.2595 538.844 101.986C545.245 108.713 548.711 117.707 548.48 126.99V126.99Z" fill="#DB8B8B"/>
<path id="Vector_46" opacity="0.1" d="M548.48 126.99C548.483 130.216 548.039 133.426 547.16 136.53C544.455 137.12 541.633 136.861 539.08 135.79C535.34 134.32 532.13 131.79 528.54 129.97C518.43 124.85 506.4 125.86 495.2 127.55C489.64 128.39 483.33 129.17 478.96 125.63C478.81 125.511 478.666 125.385 478.53 125.25C478.761 115.967 482.67 107.157 489.396 100.756C496.123 94.3555 505.117 90.8893 514.4 91.12C523.683 91.3508 532.493 95.2595 538.894 101.986C545.295 108.713 548.761 117.707 548.53 126.99H548.48Z" fill="black"/>
<path id="Vector_47" opacity="0.05" d="M384.98 234.49C384.98 234.49 410.98 241.49 418.98 259.49C426.98 277.49 448.62 280.78 448.62 280.78" fill="black"/>
<path id="Vector_48" d="M482.98 630.49H422.98V649.49H482.98V630.49Z" fill="#6C63FF"/>
<path id="Vector_49" d="M482.98 630.49H422.98V649.49H482.98V630.49Z" fill="#070707"/>
<path id="Vector_50" d="M431.99 595.23C437.36 592.23 442.07 589.23 442.48 587.99C442.48 587.99 456.03 602.29 468.1 606.73C472.159 608.229 476.044 610.16 479.69 612.49C484.47 615.49 491.29 619.02 497.48 619.02C497.48 619.02 511.48 631.02 484.48 633.02C457.48 635.02 394.48 628.02 394.48 628.02L398.48 603.02C410.167 603.705 421.804 601 431.99 595.23Z" fill="#ABB1D1"/>
</g>
<g id="backwheel">
<path id="Vector_51" d="M246.725 721.778L240.455 623.838L240.325 623.628L234.005 625.828L204.925 710.678L158.675 677.888L232.345 624.478L232.415 624.268L232.835 624.118L237.585 620.668L160.345 577.358L141.425 598.158L144.425 617.658L233.245 619.278V621.278L142.765 619.658L139.345 597.518L165.245 569.058L203.995 523.858L204.685 525.728L212.885 516.728L243.345 522.188V520.978L245.345 521.038V522.548L290.705 530.668L248.415 615.278L242.245 619.748V620.248V620.808L340.045 586.728L328.435 677.938L245.435 625.068L242.515 623.428L291.455 702.308L246.725 721.778ZM242.725 627.438L248.575 718.818L288.625 701.438L242.725 627.438ZM162.145 677.868L203.935 707.498L231.275 627.758L162.145 677.868ZM244.465 622.208L246.555 623.378L326.905 674.578L337.705 589.708L244.465 622.208ZM237.365 615.008L239.875 619.058L240.315 618.738L243.315 524.208L213.575 518.888L205.415 527.888L237.365 615.008ZM161.945 575.948L236.785 617.948L235.485 615.818L203.905 529.548L166.715 570.418L161.945 575.948ZM245.345 524.558L242.345 617.278L246.865 613.998L287.775 532.178L245.345 524.558Z" fill="#535461"/>
<path id="Vector_52" d="M356.415 594.738C352.405 576.919 344.285 560.283 332.705 546.158C328.406 540.909 323.666 536.038 318.535 531.598C298.809 514.567 273.986 504.568 247.962 503.17C221.938 501.771 196.187 509.053 174.749 523.873C153.311 538.693 137.401 560.211 129.515 585.05C121.629 609.89 122.214 636.645 131.178 661.116C140.142 685.587 156.978 706.39 179.042 720.258C201.107 734.127 227.152 740.277 253.09 737.743C279.028 735.208 303.39 724.134 322.353 706.257C341.317 688.379 353.807 664.712 357.865 638.968C358.809 632.907 359.284 626.783 359.285 620.648C359.292 611.932 358.329 603.242 356.415 594.738ZM241.225 709.088C222.993 709.069 205.209 703.435 190.292 692.953C175.374 682.47 164.047 667.648 157.851 650.501C151.655 633.354 150.89 614.715 155.66 597.118C160.43 579.521 170.505 563.82 184.513 552.15C198.521 540.48 215.783 533.408 233.953 531.895C252.122 530.381 270.316 534.501 286.062 543.693C301.807 552.884 314.34 566.703 321.956 583.268C329.571 599.834 331.9 618.343 328.625 636.278C324.875 656.722 314.076 675.203 298.107 688.506C282.137 701.809 262.01 709.093 241.225 709.088V709.088Z" fill="black"/>
<path id="Vector_53" d="M245.73 629.27C252.805 629.27 258.54 623.535 258.54 616.46C258.54 609.385 252.805 603.65 245.73 603.65C238.655 603.65 232.92 609.385 232.92 616.46C232.92 623.535 238.655 629.27 245.73 629.27Z" fill="#535461"/>
</g>
<g id="hat">
<path id="Vector_54" d="M449.624 101.927C451.754 108.607 461.984 108.817 467.234 113.737C469.964 116.297 471.234 120.077 474.234 122.357C478.404 125.537 484.424 124.837 489.734 124.077C500.424 122.557 511.904 121.647 521.544 126.257C524.964 127.887 528.034 130.167 531.604 131.497C535.174 132.827 539.604 132.987 542.504 130.627C544.824 128.737 545.674 125.627 547.774 123.547C549.404 121.907 551.674 120.987 553.534 119.547C557.614 116.467 559.374 111.447 560.534 106.647C562.934 96.7667 563.624 86.1167 559.534 76.7467C555.444 67.3767 545.604 59.7467 534.864 60.2367C531.574 60.3867 528.364 61.2367 525.084 61.5967C516.534 62.4667 508.084 59.5967 499.504 59.1067C497.015 58.8039 494.49 59.1483 492.174 60.1067C490.427 61.0775 488.92 62.4273 487.764 64.0567C483.836 69.2021 481.146 75.1836 479.904 81.5367C478.904 86.3267 478.854 90.6667 472.984 91.4067C466.314 92.2867 445.114 87.7967 449.624 101.927Z" fill="#472727"/>
</g>
</g>
</svg>
